<svg width="25" height="26" viewBox="0 0 25 26" fill="none" xmlns="http://www.w3.org/2000/svg">
<path fill-rule="evenodd" clip-rule="evenodd" d="M18.8761 3.71592C18.8634 4.46813 18.5346 5.18024 17.9703 5.67773C17.1606 6.29704 16.0705 6.40564 15.1546 5.95823C14.2387 5.51083 13.6543 4.58425 13.6451 3.56495C13.6617 2.82428 13.9686 2.11977 14.4996 1.60314C14.9731 1.22794 15.5555 1.01633 16.1594 1.00004C16.8807 0.997178 17.5732 1.28237 18.0833 1.7923C18.5934 2.30222 18.8787 2.99468 18.8761 3.71592ZM9.17204 6.19022C9.19863 6.17386 9.21801 6.16194 9.21801 6.13063L9.21265 6.12756C10.996 5.82788 12.827 6.20474 14.3471 7.18433C14.6763 7.34966 14.9954 7.53441 15.3027 7.73762C15.3784 7.75015 15.4486 7.78512 15.5042 7.83801H15.4544C15.4285 7.86349 15.4157 7.87614 15.403 7.88888C15.3904 7.90143 15.378 7.91407 15.3533 7.93917C16.4256 8.64175 17.7627 8.80867 18.9749 8.3913H19.0255C19.0255 8.35983 19.0448 8.34794 19.0716 8.33145C19.0878 8.32144 19.1068 8.30973 19.1259 8.29091C19.9507 7.95611 20.6532 7.37687 21.1391 6.63104C21.1776 6.55493 21.2295 6.4864 21.2923 6.42873C22.3989 5.57427 24.2603 6.83182 23.3039 8.08937C22.9193 8.66471 22.463 9.18875 21.946 9.64885C20.2736 11.0977 17.9688 11.5741 15.859 10.9072C14.954 12.4667 14.0988 14.0261 13.2428 15.6354C13.5961 15.8362 13.9478 16.0378 14.2497 16.2393L14.1493 16.3397C15.0575 16.9443 15.9602 17.6486 16.5135 18.1022C17.2603 18.6551 18.1303 20.5906 18.811 22.105C19.0012 22.5282 19.1767 22.9186 19.3305 23.2367C19.6055 23.7107 19.5224 24.3111 19.129 24.6927C18.8024 24.9553 18.3748 25.0569 17.965 24.9692C17.5552 24.8815 17.2067 24.6138 17.0162 24.2406C16.904 23.997 16.7761 23.7103 16.6385 23.4015C16.0355 22.0486 15.2442 20.2735 14.7532 19.8648C13.4825 18.8526 12.0768 18.0226 10.5767 17.3988C10.5533 17.3988 10.5166 17.3867 10.4793 17.3744C10.4407 17.3618 10.4016 17.3489 10.3759 17.3489C8.27665 19.9659 4.58698 20.6695 1.67195 19.0088C1.23855 18.7444 0.981919 18.2663 1.00099 17.759C1.02007 17.2516 1.31187 16.7942 1.7639 16.5631C2.21593 16.3319 2.7576 16.3631 3.18009 16.6447C5.49517 17.9528 7.85854 16.2424 8.96589 14.079C10.0227 11.9632 10.8281 10.4573 11.6833 8.89785C9.97208 8.34379 8.4126 8.84574 7.15581 10.6083C6.19943 12.016 3.8353 10.6581 4.84073 9.24959C5.24112 8.68626 5.69624 8.16389 6.19943 7.69011C7.03293 6.97453 8.03885 6.48901 9.11762 6.28159V6.23102C9.1366 6.21204 9.15568 6.20029 9.17204 6.19022Z" fill="white"/>
<path d="M17.9703 5.67773L18.2741 6.07486L18.2879 6.0643L18.3009 6.0528L17.9703 5.67773ZM18.8761 3.71592L19.376 3.72433L19.3761 3.71776L18.8761 3.71592ZM13.6451 3.56495L13.1452 3.55374L13.1451 3.5616L13.1451 3.56947L13.6451 3.56495ZM14.4996 1.60314L14.189 1.21125L14.1691 1.22704L14.1509 1.24477L14.4996 1.60314ZM16.1594 1.00004L16.1574 0.499914L16.146 0.500224L16.1594 1.00004ZM18.0833 1.7923L18.4368 1.43869L18.4368 1.43869L18.0833 1.7923ZM9.21801 6.13063H9.71801V5.84048L9.46609 5.69651L9.21801 6.13063ZM9.17204 6.19022L9.4341 6.61605L9.43411 6.61605L9.17204 6.19022ZM9.21265 6.12756L9.12979 5.63448L7.7483 5.86663L8.96456 6.56168L9.21265 6.12756ZM14.3471 7.18433L14.0762 7.60462L14.0987 7.61913L14.1227 7.63116L14.3471 7.18433ZM15.3027 7.73762L15.0269 8.15468L15.1159 8.21352L15.2211 8.23092L15.3027 7.73762ZM15.5042 7.83801V8.33801H16.7554L15.8488 7.47572L15.5042 7.83801ZM15.4544 7.83801V7.33801H15.2495L15.1035 7.48181L15.4544 7.83801ZM15.403 7.88888L15.7566 8.24239L15.7566 8.24238L15.403 7.88888ZM15.3533 7.93917L14.997 7.58832L14.5689 8.02303L15.0792 8.3574L15.3533 7.93917ZM18.9749 8.3913V7.8913H18.8913L18.8122 7.91854L18.9749 8.3913ZM19.0255 8.3913V8.8913H19.5255V8.3913H19.0255ZM19.0716 8.33145L19.3339 8.7571L19.3339 8.75709L19.0716 8.33145ZM19.1259 8.29091L18.9378 7.82763L18.8458 7.86499L18.775 7.93468L19.1259 8.29091ZM21.1391 6.63104L21.558 6.90396L21.5729 6.88109L21.5852 6.85674L21.1391 6.63104ZM21.2923 6.42873L20.9867 6.03298L20.9699 6.04596L20.9543 6.06033L21.2923 6.42873ZM23.3039 8.08937L22.906 7.7867L22.8967 7.79882L22.8883 7.81148L23.3039 8.08937ZM21.946 9.64885L22.2734 10.0268L22.2784 10.0224L21.946 9.64885ZM15.859 10.9072L16.0097 10.4304L15.6277 10.3097L15.4266 10.6562L15.859 10.9072ZM13.2428 15.6354L12.8013 15.4006L12.573 15.8299L12.9957 16.0701L13.2428 15.6354ZM14.2497 16.2393L14.6033 16.5929L15.0343 16.1618L14.5273 15.8234L14.2497 16.2393ZM14.1493 16.3397L13.7958 15.9861L13.3643 16.4177L13.8722 16.7559L14.1493 16.3397ZM16.5135 18.1022L16.1965 18.4889L16.206 18.4968L16.216 18.5041L16.5135 18.1022ZM18.811 22.105L19.267 21.9L19.267 21.9L18.811 22.105ZM19.3305 23.2367L18.8804 23.4544L18.8886 23.4713L18.898 23.4875L19.3305 23.2367ZM19.129 24.6927L19.4423 25.0823L19.4604 25.0678L19.4771 25.0516L19.129 24.6927ZM17.0162 24.2406L16.5621 24.4498L16.5663 24.4589L16.5708 24.4679L17.0162 24.2406ZM16.6385 23.4015L17.0952 23.1979L17.0952 23.1979L16.6385 23.4015ZM14.7532 19.8648L15.0731 19.4804L15.0648 19.4737L14.7532 19.8648ZM10.5767 17.3988L10.7687 16.9371L10.6765 16.8988H10.5767V17.3988ZM10.4793 17.3744L10.6352 16.8994L10.6352 16.8994L10.4793 17.3744ZM10.3759 17.3489V16.8489H10.136L9.98592 17.0361L10.3759 17.3489ZM1.67195 19.0088L1.41152 19.4356L1.41793 19.4395L1.42445 19.4433L1.67195 19.0088ZM1.00099 17.759L0.501347 17.7402L0.501347 17.7402L1.00099 17.759ZM1.7639 16.5631L1.99154 17.0082L1.99154 17.0082L1.7639 16.5631ZM3.18009 16.6447L2.90281 17.0608L2.91811 17.071L2.93412 17.08L3.18009 16.6447ZM8.96589 14.079L9.41099 14.3068L9.4132 14.3024L8.96589 14.079ZM11.6833 8.89785L12.1217 9.13827L12.4123 8.60834L11.8373 8.42216L11.6833 8.89785ZM7.15581 10.6083L6.7486 10.3179L6.74223 10.3273L7.15581 10.6083ZM4.84073 9.24959L5.24769 9.54009L5.24827 9.53926L4.84073 9.24959ZM6.19943 7.69011L5.87373 7.31074L5.86503 7.31821L5.85668 7.32608L6.19943 7.69011ZM9.11762 6.28159L9.21203 6.7726L9.61762 6.69462V6.28159H9.11762ZM9.11762 6.23102L8.76406 5.87747L8.61762 6.02391V6.23102H9.11762ZM18.3009 6.0528C18.9707 5.46233 19.361 4.61713 19.376 3.72433L18.3761 3.7075C18.3659 4.31913 18.0985 4.89815 17.6396 5.30265L18.3009 6.0528ZM14.9352 6.4075C16.0213 6.93804 17.314 6.80926 18.2741 6.07486L17.6665 5.28059C17.0073 5.78481 16.1198 5.87323 15.3741 5.50897L14.9352 6.4075ZM13.1451 3.56947C13.156 4.77818 13.8491 5.87695 14.9352 6.4075L15.3741 5.50897C14.6284 5.1447 14.1526 4.39032 14.1451 3.56044L13.1451 3.56947ZM14.1509 1.24477C13.5259 1.85282 13.1648 2.68201 13.1452 3.55374L14.145 3.57616C14.1586 2.96656 14.4112 2.38672 14.8482 1.96152L14.1509 1.24477ZM16.146 0.500224C15.4339 0.519426 14.7473 0.768903 14.189 1.21125L14.8101 1.99504C15.1989 1.68697 15.677 1.51323 16.1729 1.49986L16.146 0.500224ZM18.4368 1.43869C17.8325 0.834542 17.012 0.496652 16.1574 0.500046L16.1614 1.50004C16.7494 1.4977 17.314 1.7302 17.7298 2.1459L18.4368 1.43869ZM19.3761 3.71776C19.3792 2.86325 19.0411 2.04284 18.4368 1.43869L17.7298 2.1459C18.1456 2.5616 18.3782 3.1261 18.3761 3.71407L19.3761 3.71776ZM8.71801 6.13063C8.71801 6.08567 8.72521 6.03005 8.74818 5.97061C8.77137 5.91061 8.80414 5.8635 8.83586 5.82878C8.86527 5.79659 8.89206 5.77699 8.90276 5.76947C8.91212 5.76288 8.91971 5.75842 8.90998 5.7644L9.43411 6.61605C9.43767 6.61385 9.45765 6.60176 9.47813 6.58736C9.49994 6.57202 9.53656 6.54441 9.57413 6.50328C9.66715 6.40147 9.71801 6.27011 9.71801 6.13063H8.71801ZM8.96456 6.56168L8.96993 6.56474L9.46609 5.69651L9.46073 5.69345L8.96456 6.56168ZM14.6179 6.76405C12.9931 5.71697 11.036 5.31415 9.12979 5.63448L9.29551 6.62065C10.956 6.34161 12.6609 6.69251 14.0762 7.60462L14.6179 6.76405ZM15.5785 7.32057C15.2547 7.10642 14.9184 6.91172 14.5714 6.73751L14.1227 7.63116C14.4342 7.78759 14.7361 7.9624 15.0269 8.15468L15.5785 7.32057ZM15.8488 7.47572C15.7206 7.3538 15.5588 7.27319 15.3843 7.24432L15.2211 8.23092C15.198 8.2271 15.1766 8.21644 15.1596 8.20031L15.8488 7.47572ZM15.4544 8.33801H15.5042V7.33801H15.4544V8.33801ZM15.7566 8.24238C15.7676 8.2313 15.7789 8.2202 15.8053 8.19422L15.1035 7.48181C15.0782 7.50678 15.0638 7.52097 15.0494 7.53537L15.7566 8.24238ZM15.7095 8.29001C15.7347 8.26442 15.7456 8.25331 15.7566 8.24239L15.0494 7.53536C15.0352 7.54954 15.0212 7.56372 14.997 7.58832L15.7095 8.29001ZM18.8122 7.91854C17.7462 8.28557 16.5703 8.13878 15.6273 7.52093L15.0792 8.3574C16.281 9.14471 17.7793 9.33177 19.1377 8.86407L18.8122 7.91854ZM19.0255 7.8913H18.9749V8.8913H19.0255V7.8913ZM18.8092 7.9058C18.8056 7.90801 18.7856 7.92015 18.7651 7.9346C18.7432 7.95001 18.7065 7.97775 18.6688 8.0191C18.5755 8.12158 18.5255 8.25299 18.5255 8.3913H19.5255C19.5255 8.43563 19.5185 8.49091 19.4957 8.55022C19.4727 8.6102 19.44 8.65746 19.4082 8.69242C19.3787 8.7248 19.3518 8.74451 19.3411 8.75206C19.3317 8.75867 19.3241 8.76314 19.3339 8.7571L18.8092 7.9058ZM18.775 7.93468C18.8003 7.90983 18.8251 7.896 18.8092 7.90581L19.3339 8.75709C19.3505 8.74687 19.4133 8.70963 19.4768 8.64715L18.775 7.93468ZM20.7201 6.35812C20.29 7.01842 19.668 7.53123 18.9378 7.82763L19.314 8.7542C20.2333 8.381 21.0164 7.73533 21.558 6.90396L20.7201 6.35812ZM20.9543 6.06033C20.8471 6.15867 20.7586 6.27555 20.6929 6.40534L21.5852 6.85674C21.5966 6.83432 21.6119 6.81412 21.6304 6.79713L20.9543 6.06033ZM23.7019 8.39204C24.0184 7.97588 24.1278 7.51705 24.0386 7.07943C23.9522 6.65504 23.6912 6.30775 23.3726 6.06771C22.7511 5.5994 21.7571 5.4381 20.9867 6.03298L21.5979 6.82448C21.9341 6.56491 22.4241 6.60515 22.7709 6.86638C22.9364 6.99112 23.0306 7.1406 23.0588 7.27899C23.0843 7.40413 23.0676 7.57408 22.906 7.7867L23.7019 8.39204ZM22.2784 10.0224C22.8271 9.53404 23.3114 8.97787 23.7196 8.36726L22.8883 7.81148C22.5272 8.35155 22.0989 8.84346 21.6136 9.27535L22.2784 10.0224ZM15.7083 11.3839C17.9838 12.1032 20.4696 11.5894 22.2734 10.0268L21.6186 9.27094C20.0776 10.6059 17.9538 11.045 16.0097 10.4304L15.7083 11.3839ZM13.6842 15.8702C14.5383 14.2645 15.3904 12.7108 16.2915 11.1581L15.4266 10.6562C14.5176 12.2225 13.6593 13.7877 12.8013 15.4006L13.6842 15.8702ZM14.5273 15.8234C14.2081 15.6103 13.8408 15.4002 13.4898 15.2007L12.9957 16.0701C13.3513 16.2722 13.6875 16.4652 13.9721 16.6552L14.5273 15.8234ZM14.5029 16.6932L14.6033 16.5929L13.8962 15.8857L13.7958 15.9861L14.5029 16.6932ZM16.8305 17.7156C16.2699 17.2559 15.3532 16.5405 14.4265 15.9235L13.8722 16.7559C14.7617 17.3481 15.6505 18.0412 16.1965 18.4889L16.8305 17.7156ZM19.267 21.9C18.9282 21.1462 18.5336 20.2677 18.1282 19.5077C17.9253 19.1273 17.7148 18.7672 17.502 18.462C17.2936 18.1631 17.0624 17.8865 16.8109 17.7004L16.216 18.5041C16.338 18.5944 16.4956 18.7671 16.6817 19.0339C16.8633 19.2943 17.0529 19.6165 17.2459 19.9783C17.6324 20.703 18.013 21.5493 18.3549 22.3099L19.267 21.9ZM19.7806 23.019C19.6305 22.7086 19.4582 22.3253 19.267 21.9L18.3549 22.3099C18.5442 22.7311 18.7228 23.1286 18.8804 23.4544L19.7806 23.019ZM19.4771 25.0516C20.0352 24.5102 20.1531 23.6584 19.763 22.9858L18.898 23.4875C19.0578 23.7631 19.0095 24.112 18.7808 24.3338L19.4771 25.0516ZM17.8604 25.4581C18.4174 25.5773 18.9984 25.4393 19.4423 25.0823L18.8156 24.303C18.6063 24.4714 18.3323 24.5364 18.0697 24.4802L17.8604 25.4581ZM16.5708 24.4679C16.8298 24.9752 17.3034 25.3389 17.8604 25.4581L18.0697 24.4802C17.807 24.424 17.5836 24.2525 17.4615 24.0133L16.5708 24.4679ZM16.1818 23.605C16.3191 23.913 16.4483 24.2029 16.5621 24.4498L17.4703 24.0313C17.3597 23.7912 17.2332 23.5076 17.0952 23.1979L16.1818 23.605ZM14.4334 20.2491C14.4902 20.2964 14.5965 20.4244 14.7458 20.664C14.8871 20.8908 15.0432 21.1783 15.2073 21.5041C15.5356 22.1554 15.8792 22.926 16.1818 23.605L17.0952 23.1979C16.7948 22.524 16.4413 21.7306 16.1004 21.0541C15.9299 20.7158 15.7585 20.3984 15.5945 20.1352C15.4385 19.8847 15.2618 19.6376 15.0731 19.4805L14.4334 20.2491ZM10.3847 17.8604C11.8419 18.4664 13.2073 19.2726 14.4417 20.2559L15.0648 19.4737C13.7577 18.4325 12.3117 17.5787 10.7687 16.9371L10.3847 17.8604ZM10.3233 17.8495C10.3388 17.8546 10.3705 17.8651 10.4024 17.8738C10.4264 17.8803 10.495 17.8988 10.5767 17.8988V16.8988C10.5948 16.8988 10.6097 16.8999 10.6204 16.901C10.6312 16.9022 10.6399 16.9036 10.6458 16.9047C10.6571 16.9067 10.6639 16.9086 10.6641 16.9086C10.6646 16.9088 10.6628 16.9083 10.6572 16.9065C10.6515 16.9047 10.6451 16.9026 10.6352 16.8994L10.3233 17.8495ZM10.3759 17.8489C10.3587 17.8489 10.3445 17.8479 10.3343 17.8468C10.3239 17.8457 10.3156 17.8444 10.3099 17.8434C10.3042 17.8424 10.2999 17.8415 10.2973 17.8409C10.2947 17.8403 10.2931 17.8398 10.2928 17.8398C10.2926 17.8397 10.2947 17.8403 10.3005 17.8421C10.3065 17.844 10.3131 17.8461 10.3233 17.8495L10.6352 16.8994C10.6191 16.8941 10.5861 16.8831 10.5527 16.8741C10.5264 16.867 10.4576 16.8489 10.3759 16.8489V17.8489ZM1.42445 19.4433C4.55299 21.2256 8.5129 20.4704 10.766 17.6618L9.98592 17.0361C8.04039 19.4613 4.62097 20.1134 1.91945 18.5744L1.42445 19.4433ZM0.501347 17.7402C0.475472 18.4284 0.823599 19.0769 1.41152 19.4356L1.93238 18.582C1.6535 18.4118 1.48837 18.1042 1.50064 17.7778L0.501347 17.7402ZM1.53626 16.1179C0.923058 16.4315 0.527222 17.052 0.501347 17.7402L1.50064 17.7778C1.51291 17.4513 1.70068 17.157 1.99154 17.0082L1.53626 16.1179ZM3.45737 16.2286C2.88425 15.8467 2.14946 15.8043 1.53626 16.1179L1.99154 17.0082C2.28241 16.8595 2.63096 16.8796 2.90281 17.0608L3.45737 16.2286ZM8.52081 13.8512C8.00391 14.861 7.20272 15.7438 6.29357 16.2209C5.40198 16.6887 4.41425 16.7677 3.42606 16.2094L2.93412 17.08C4.26102 17.8298 5.61251 17.7076 6.75821 17.1064C7.88635 16.5144 8.82051 15.4604 9.41097 14.3068L8.52081 13.8512ZM11.2449 8.65743C10.3874 10.221 9.57889 11.7327 8.51858 13.8556L9.4132 14.3024C10.4664 12.1937 11.2687 10.6937 12.1217 9.13827L11.2449 8.65743ZM7.56292 10.8986C8.14798 10.0781 8.77646 9.58815 9.41994 9.35426C10.0597 9.12174 10.7615 9.12496 11.5293 9.37354L11.8373 8.42216C10.8938 8.11668 9.96034 8.09384 9.07834 8.41442C8.20008 8.73364 7.42043 9.37597 6.74871 10.318L7.56292 10.8986ZM4.43377 8.9591C4.0983 9.42906 4.02112 9.93967 4.16674 10.4038C4.30659 10.8495 4.63413 11.1983 5.01155 11.4175C5.75596 11.8496 6.90361 11.8693 7.5694 10.8893L6.74223 10.3273C6.45164 10.7551 5.93903 10.7996 5.51364 10.5526C5.30616 10.4322 5.1714 10.2654 5.12087 10.1044C5.07611 9.96172 5.08044 9.77438 5.24768 9.54009L4.43377 8.9591ZM5.85668 7.32608C5.32949 7.82245 4.85267 8.36973 4.43318 8.95993L5.24827 9.53926C5.62958 9.00279 6.06299 8.50533 6.54218 8.05414L5.85668 7.32608ZM9.02322 5.79059C7.85894 6.01444 6.7733 6.53845 5.87373 7.31074L6.52513 8.06948C7.29257 7.41062 8.21875 6.96358 9.21203 6.7726L9.02322 5.79059ZM8.61762 6.23102V6.28159H9.61762V6.23102H8.61762ZM8.90999 5.7644C8.89347 5.77457 8.82874 5.81279 8.76406 5.87747L9.47118 6.58457C9.44445 6.61129 9.4179 6.62602 9.4341 6.61605L8.90999 5.7644Z" fill="black"/>
</svg>
